<svg width="35" height="35" viewBox="0 0 52 53" fill="none" xmlns="http://www.w3.org/2000/svg">
<g filter="url(#filter0_d_34_453)">
<path d="M46.0015 15.999L27.3462 0.653136C26.8168 0.217712 26.1703 0 25.5239 0C24.8774 0 24.231 0.217712 23.7017 0.653136L18.0215 5.32558C17.6889 5.59643 18.7676 4.71191 18.0215 5.32558L11.8544 10.3987C12.623 9.76643 11.3462 10.8198 11.8544 10.3987L8.27375 13.3441L5.04631 15.999C4.11111 16.7683 3.75973 18.0422 4.16839 19.1821C4.52321 20.1721 5.38488 20.8759 6.39857 21.044V41.1569C6.39857 42.7411 7.68285 44.0253 9.26698 44.0253H19.1575C20.7417 44.0253 22.0259 42.7411 22.0259 41.1569V33.8449C22.0259 33.3366 22.2456 33.0336 22.348 32.9561H28.6998C28.8022 33.0336 29.0218 33.3366 29.0218 33.8449V41.1569C29.0218 42.7411 30.306 44.0253 31.8902 44.0253H41.7808C43.365 44.0253 44.6492 42.7411 44.6492 41.1569V21.0441C45.663 20.8761 46.5245 20.1722 46.8793 19.1822C47.2881 18.0422 46.9367 16.7684 46.0015 15.999ZM41.7808 18.2143V41.1569H31.8902V33.845C31.8902 31.7699 30.4854 30.0878 28.7524 30.0878H22.2955C20.5625 30.0878 19.1576 31.77 19.1576 33.845V41.1569H9.26698V18.2143H6.86851L25.5239 2.86841L44.1792 18.2143H41.7808Z" fill="#9B51E0"/>
</g>
<defs>
<filter id="filter0_d_34_453" x="0" y="0" width="51.0479" height="52.0253" filterUnits="userSpaceOnUse" color-interpolation-filters="sRGB">
<feFlood flood-opacity="0" result="BackgroundImageFix"/>
<feColorMatrix in="SourceAlpha" type="matrix" values="0 0 0 0 0 0 0 0 0 0 0 0 0 0 0 0 0 0 127 0" result="hardAlpha"/>
<feOffset dy="4"/>
<feGaussianBlur stdDeviation="2"/>
<feComposite in2="hardAlpha" operator="out"/>
<feColorMatrix type="matrix" values="0 0 0 0 0 0 0 0 0 0 0 0 0 0 0 0 0 0 0.25 0"/>
<feBlend mode="normal" in2="BackgroundImageFix" result="effect1_dropShadow_34_453"/>
<feBlend mode="normal" in="SourceGraphic" in2="effect1_dropShadow_34_453" result="shape"/>
</filter>
</defs>
</svg>
