<svg width="35" height="35" viewBox="0 0 53 53" fill="none" xmlns="http://www.w3.org/2000/svg">
<g filter="url(#filter0_d_34_421)">
<path d="M48.0242 16.7041C48.0242 16.0137 47.7552 15.3648 47.2672 14.8768L44.1073 11.7169C43.7817 11.3913 43.3489 11.2119 42.8882 11.2119C42.4687 11.2119 42.0634 11.3647 41.7477 11.6429C41.0554 12.2529 40.1639 12.589 39.2376 12.589C38.222 12.589 37.2669 12.1937 36.5486 11.4754C35.1332 10.06 35.0597 7.77618 36.3808 6.27668C36.9816 5.59561 36.9492 4.55882 36.3071 3.91671L33.1472 0.756792C32.6587 0.268992 32.01 0 31.3199 0C30.6296 0 29.9809 0.268772 29.4924 0.756792L4.75531 25.4935C3.74823 26.501 3.74823 28.1401 4.75531 29.148L7.91543 32.3082C8.241 32.6337 8.67399 32.8136 9.13471 32.8136C9.55471 32.8136 9.95975 32.6606 10.2754 32.3823C10.9679 31.7721 11.8592 31.436 12.7857 31.436C13.8014 31.436 14.7561 31.8316 15.4744 32.5501C16.89 33.9657 16.9635 36.2491 15.6419 37.7486C15.0409 38.4301 15.0737 39.4671 15.7158 40.1081L18.8755 43.268C19.3638 43.7565 20.0127 44.025 20.703 44.025C21.3933 44.025 22.0423 43.7563 22.5303 43.268L40.7466 25.0519C40.7468 25.0517 40.7468 25.0517 40.7468 25.0517C40.7468 25.0517 40.7468 25.0517 40.7473 25.0513L47.267 18.5315C47.7552 18.0435 48.0242 17.3946 48.0242 16.7041ZM39.7765 22.1421L39.4531 21.8187C38.9171 21.2827 38.049 21.2829 37.5132 21.8187C36.9776 22.3545 36.9776 23.2229 37.5134 23.7589L37.8368 24.0818L20.7032 41.2156L18.2825 38.7948C19.9328 36.2482 19.6209 32.816 17.4145 30.6099C16.1783 29.3732 14.5344 28.6924 12.786 28.6924C11.5154 28.6924 10.282 29.0604 9.22936 29.7421L6.80798 27.3208L23.942 10.187L24.2655 10.5104C24.5334 10.7783 24.8843 10.9121 25.2354 10.9121C25.5865 10.9121 25.9376 10.778 26.2055 10.5101C26.7413 9.97436 26.7413 9.10596 26.2053 8.57017L25.8821 8.24681L31.3199 2.80903L33.7407 5.22976C32.0908 7.77706 32.4025 11.2091 34.6086 13.4149C35.8448 14.6514 37.4887 15.332 39.2374 15.332C40.5078 15.332 41.7409 14.9642 42.7936 14.2827L45.2145 16.7036L39.7765 22.1421Z" fill="#F2F2F2"/>
<path d="M29.0154 11.3808C28.4801 10.845 27.6108 10.845 27.0754 11.3808C26.5396 11.9165 26.5396 12.7849 27.0754 13.3207L29.4841 15.7296C29.7517 15.9972 30.103 16.1313 30.4539 16.1313C30.8048 16.1313 31.1561 15.9975 31.4238 15.7296C31.9596 15.1938 31.9596 14.3254 31.4238 13.7896L29.0154 11.3808Z" fill="#F2F2F2"/>
<path d="M34.2342 16.5997C33.6991 16.0642 32.8298 16.0642 32.2945 16.5997C31.7585 17.1355 31.7585 18.0039 32.2945 18.5397L34.7029 20.9483C34.9708 21.2162 35.3221 21.3503 35.6727 21.3503C36.0238 21.3503 36.3749 21.2165 36.6426 20.9486C37.1786 20.4128 37.1786 19.5444 36.6426 19.0086L34.2342 16.5997Z" fill="#F2F2F2"/>
</g>
<defs>
<filter id="filter0_d_34_421" x="0" y="0" width="52.0242" height="52.0251" filterUnits="userSpaceOnUse" color-interpolation-filters="sRGB">
<feFlood flood-opacity="0" result="BackgroundImageFix"/>
<feColorMatrix in="SourceAlpha" type="matrix" values="0 0 0 0 0 0 0 0 0 0 0 0 0 0 0 0 0 0 127 0" result="hardAlpha"/>
<feOffset dy="4"/>
<feGaussianBlur stdDeviation="2"/>
<feComposite in2="hardAlpha" operator="out"/>
<feColorMatrix type="matrix" values="0 0 0 0 0.733333 0 0 0 0 0.419608 0 0 0 0 0.85098 0 0 0 1 0"/>
<feBlend mode="normal" in2="BackgroundImageFix" result="effect1_dropShadow_34_421"/>
<feBlend mode="normal" in="SourceGraphic" in2="effect1_dropShadow_34_421" result="shape"/>
</filter>
</defs>
</svg>
