<svg width="35" height="35" viewBox="0 0 51 51" fill="none" xmlns="http://www.w3.org/2000/svg">
<g filter="url(#filter0_d_34_417)">
<path d="M46.2096 12.4567L34.0762 0.32308C33.8693 0.116213 33.5887 0 33.296 0H11.4926C7.36117 0 4 3.36117 4 7.49262V35.0405C4 39.1719 7.36117 42.5331 11.4926 42.5331H39.0405C43.1719 42.5331 46.5331 39.1719 46.5331 35.0405V13.2367C46.5329 12.9442 46.4165 12.6635 46.2096 12.4567ZM34.2154 3.58293L42.9498 12.3173H34.2154V3.58293ZM39.0403 40.3263H11.4926C8.57791 40.3263 6.20658 37.955 6.20658 35.0403V7.49262C6.20658 4.57791 8.57791 2.20658 11.4926 2.20658H32.0088V13.4206C32.0088 14.0298 32.5029 14.5239 33.1121 14.5239H44.3261V35.0403C44.3263 37.955 41.955 40.3263 39.0403 40.3263Z" fill="#F2F2F2"/>
<path d="M23.0916 9.6352C22.0127 8.55637 20.5785 7.96225 19.0528 7.96225C17.5271 7.96225 16.0929 8.55637 15.014 9.6352C13.9352 10.714 13.3411 12.1483 13.3411 13.674C13.3411 15.1996 13.9352 16.6339 15.014 17.7127L26.3293 29.0281C27.7925 30.491 30.1725 30.4907 31.6352 29.0281C33.098 27.5651 33.098 25.1851 31.6352 23.7222L20.4317 12.519C20.0009 12.0882 19.3021 12.0882 18.8715 12.519C18.4406 12.9499 18.4406 13.6484 18.8715 14.0793L30.0748 25.2826C30.6772 25.885 30.6772 26.8654 30.0748 27.4678C29.4724 28.0702 28.4922 28.0702 27.8896 27.4678L16.5743 16.1527C15.9121 15.4905 15.5476 14.6103 15.5476 13.6742C15.5476 12.7378 15.9123 11.8576 16.5743 11.1956C17.941 9.82883 20.1645 9.82883 21.5313 11.1956L33.3873 23.0516C35.5142 25.1785 35.5142 28.6394 33.3873 30.7663C32.357 31.7966 30.9871 32.3641 29.53 32.3641C28.0729 32.3641 26.703 31.7966 25.6727 30.7663L16.5572 21.6506C16.1263 21.2197 15.4276 21.2197 14.9969 21.6506C14.5661 22.0814 14.5661 22.78 14.9969 23.2108L24.1125 32.3264C25.5596 33.7735 27.4836 34.5704 29.53 34.5704C31.5764 34.5704 33.5005 33.7735 34.9475 32.3264C36.3945 30.8792 37.1916 28.9553 37.1916 26.9087C37.1916 24.8622 36.3946 22.9381 34.9475 21.4911L23.0916 9.6352Z" fill="#F2F2F2"/>
</g>
<defs>
<filter id="filter0_d_34_417" x="0" y="0" width="50.5331" height="50.5331" filterUnits="userSpaceOnUse" color-interpolation-filters="sRGB">
<feFlood flood-opacity="0" result="BackgroundImageFix"/>
<feColorMatrix in="SourceAlpha" type="matrix" values="0 0 0 0 0 0 0 0 0 0 0 0 0 0 0 0 0 0 127 0" result="hardAlpha"/>
<feOffset dy="4"/>
<feGaussianBlur stdDeviation="2"/>
<feComposite in2="hardAlpha" operator="out"/>
<feColorMatrix type="matrix" values="0 0 0 0 0.733333 0 0 0 0 0.419608 0 0 0 0 0.85098 0 0 0 1 0"/>
<feBlend mode="normal" in2="BackgroundImageFix" result="effect1_dropShadow_34_417"/>
<feBlend mode="normal" in="SourceGraphic" in2="effect1_dropShadow_34_417" result="shape"/>
</filter>
</defs>
</svg>
